<svg xmlns="http://www.w3.org/2000/svg" class="gb_E" focusable="false" viewBox="0 0 24 24"><path d="M6,8c1.1,0 2,-0.9 2,-2s-0.9,-2 -2,-2 -2,0.9 -2,2 0.9,2 2,2zM12,20c1.1,0 2,-0.9 2,-2s-0.9,-2 -2,-2 -2,0.9 -2,2 0.9,2 2,2zM6,20c1.1,0 2,-0.9 2,-2s-0.9,-2 -2,-2 -2,0.9 -2,2 0.9,2 2,2zM6,14c1.1,0 2,-0.9 2,-2s-0.9,-2 -2,-2 -2,0.9 -2,2 0.9,2 2,2zM12,14c1.1,0 2,-0.9 2,-2s-0.9,-2 -2,-2 -2,0.9 -2,2 0.9,2 2,2zM16,6c0,1.1 0.9,2 2,2s2,-0.9 2,-2 -0.9,-2 -2,-2 -2,0.9 -2,2zM12,8c1.1,0 2,-0.9 2,-2s-0.9,-2 -2,-2 -2,0.9 -2,2 0.9,2 2,2zM18,14c1.1,0 2,-0.9 2,-2s-0.9,-2 -2,-2 -2,0.9 -2,2 0.9,2 2,2zM18,20c1.1,0 2,-0.9 2,-2s-0.9,-2 -2,-2 -2,0.9 -2,2 0.9,2 2,2z"/><image src="https://ssl.gstatic.com/gb/images/bar/al-icon.png" alt="" height="24" width="24" style="border: none; --darkreader-inline-border-top: none; --darkreader-inline-border-right: none; --darkreader-inline-border-bottom: none; --darkreader-inline-border-left: none;" data-darkreader-inline-border-top="" data-darkreader-inline-border-right="" data-darkreader-inline-border-bottom="" data-darkreader-inline-border-left=""/></svg>