<svg xmlns="http://www.w3.org/2000/svg" focusable="false" viewBox="0 -960 960 960" height="20" width="20" class=" aoH"><path d="M648-624V-744H312v120H240V-816H720v192H648ZM168-552q0,0 10.93,0T206-552H753q16,0 28,0t12,0H720H240H168Zm539.79,96q15.21,0 25.71-10.29t10.5-25.5T733.71-517.5T708.21-528T682.5-517.71T672-492.21t10.29,25.71t25.5,10.5ZM648-216V-360H312v144H648Zm72,72H240V-288H96V-528q0-40 28-68t68-28H768q40,0 68,28t28,68v240H720v144Zm73-216V-513.67Q793-530 781-541t-28-11H206q-16.15,0-27.07,11.04T168-513.6V-360h72v-72H720v72h73Z"/></svg>