<svg xmlns="http://www.w3.org/2000/svg" viewBox="0 -960 960 960" height="20" width="20" focusable="false" class=" aoH"><path d="M480-96L432-240H168q-30-1-51-21.5T96-312V-792q0-29 21-50.5T168-864H384l48,144H792q29,0 50.5,21.5T864-648v480q0,30-21.5,51T792-96H480ZM291-384q57,0 97.5-37T429-525q0-7-0.5-14T426-554H291v49h84q-3,33-27,51.5T291-435q-38,0-64.5-27T200-528q0-38 26.5-65.5T291-621q16,0 31,6t27,17l38-37q-20-19-45-28t-51-9q-60,0-102,42T147-528t42,102t102,42Zm254,34l19-19q-14-15-25-31.5T518-435l27,85Zm47-49q20-24 37-50.5T654-508H495l14,42l39-1q9,19 19.5,36T592-399ZM528-144H792q10,0 17-6.5t7-17.5V-648q0-10-7-17t-17-7H444l38,123h80v-41h40v41H747v41H696q-10,40-30,74.5T620-369L728-263l-29,29L593-340l-35,34l36,114l-66,48Z"/></svg>